<?xml version="1.0" standalone="no"?><!DOCTYPE svg PUBLIC "-//W3C//DTD SVG 1.1//EN" "http://www.w3.org/Graphics/SVG/1.1/DTD/svg11.dtd"><svg t="1563366198537" class="icon" viewBox="0 0 1024 1024" version="1.1" xmlns="http://www.w3.org/2000/svg" p-id="6235" xmlns:xlink="http://www.w3.org/1999/xlink" width="200" height="200"><defs><style type="text/css"></style></defs><path d="M967.111 512C853.333 284.444 699.733 170.667 512 170.667c-85.333 0-159.289 22.755-233.244 68.266l-108.09-108.089-39.822 39.823 102.4 102.4C170.667 329.956 108.09 409.6 56.89 512 170.667 739.556 318.578 853.333 512 853.333c85.333 0 164.978-22.755 233.244-68.266l108.09 108.089 39.822-39.823-102.4-102.4C859.022 694.044 915.91 614.4 967.11 512zM512 227.556c159.289 0 290.133 91.022 392.533 284.444-45.51 85.333-96.71 153.6-153.6 199.111l-56.889-56.889C722.49 614.4 739.556 563.2 739.556 512c0-125.156-102.4-227.556-227.556-227.556-51.2 0-102.4 17.067-136.533 51.2l-56.89-56.888c62.579-34.134 125.156-51.2 193.423-51.2zM369.778 415.289L608.71 654.222c-22.755 17.067-56.889 28.445-96.711 28.445-96.711 0-170.667-73.956-170.667-170.667 0-39.822 11.378-73.956 28.445-96.711z m45.51-45.511c22.756-17.067 56.89-28.445 96.712-28.445 96.711 0 170.667 73.956 170.667 170.667 0 39.822-11.378 73.956-28.445 96.711L415.29 369.778zM512 796.444c-159.289 0-290.133-91.022-392.533-284.444 45.51-85.333 96.71-153.6 153.6-199.111l56.889 56.889C301.51 409.6 284.444 460.8 284.444 512c0 125.156 102.4 227.556 227.556 227.556 51.2 0 102.4-17.067 136.533-51.2l51.2 51.2C642.844 779.378 580.267 796.444 512 796.444z" fill="#73777A" p-id="6236"></path></svg>