<?xml version="1.0" standalone="no"?><!DOCTYPE svg PUBLIC "-//W3C//DTD SVG 1.1//EN" "http://www.w3.org/Graphics/SVG/1.1/DTD/svg11.dtd"><svg t="1563366194562" class="icon" viewBox="0 0 1024 1024" version="1.1" xmlns="http://www.w3.org/2000/svg" p-id="6116" xmlns:xlink="http://www.w3.org/1999/xlink" width="200" height="200"><defs><style type="text/css"></style></defs><path d="M56.889 512C170.667 284.444 324.267 170.667 512 170.667S853.333 284.444 967.111 512C853.333 739.556 705.422 853.333 512 853.333S170.667 739.556 56.889 512zM512 796.444c159.289 0 290.133-91.022 392.533-284.444C802.133 318.578 671.29 227.556 512 227.556S221.867 318.578 119.467 512C221.867 705.422 352.71 796.444 512 796.444z" fill="#73777A" p-id="6117"></path><path d="M512 739.556c-125.156 0-227.556-102.4-227.556-227.556S386.844 284.444 512 284.444 739.556 386.844 739.556 512 637.156 739.556 512 739.556z m0-56.89c96.711 0 170.667-73.955 170.667-170.666S608.71 341.333 512 341.333 341.333 415.29 341.333 512 415.29 682.667 512 682.667z" fill="#73777A" p-id="6118"></path></svg>